<?xml version="1.0" encoding="UTF-8"?>
<svg version="1.1" xmlns="http://www.w3.org/2000/svg" width="800" height="800">
<path d="M0 0 C4.34934247 3.24781187 8.55146418 6.66318404 12.73535156 10.12060547 C17.41339625 13.98378624 22.17891204 17.68706321 27.0546875 21.296875 C32.99618233 25.70150124 38.80773957 30.23785509 44.56542969 34.87963867 C48.95894216 38.41860026 53.39839581 41.88548492 57.87890625 45.31396484 C62.4967636 48.84829482 67.09104215 52.41221104 71.6796875 55.984375 C72.82207886 56.87358643 72.82207886 56.87358643 73.98754883 57.78076172 C75.54564555 58.99372181 77.10366913 60.20677586 78.66162109 61.41992188 C82.43736016 64.35950838 86.21484285 67.29685215 89.9921875 70.234375 C91.49219627 71.40103039 92.99219626 72.56769707 94.4921875 73.734375 C95.2346875 74.311875 95.9771875 74.889375 96.7421875 75.484375 C163.1171875 127.109375 163.1171875 127.109375 229.4921875 178.734375 C230.6064209 179.60098755 230.6064209 179.60098755 231.74316406 180.48510742 C233.23994393 181.64928759 234.73668884 182.8135127 236.23339844 183.9777832 C240.80370564 187.53285347 245.3750743 191.08654959 249.94824219 194.63793945 C251.46595593 195.81822195 252.98225638 197.00032425 254.49707031 198.18432617 C257.98060355 200.90607661 261.47504481 203.60538879 265.0234375 206.2421875 C276.0431189 214.49385179 281.43139163 221.49985232 283.9921875 235.234375 C284.36226448 239.35012463 284.37564755 243.42461118 284.33517456 247.55477905 C284.33577098 248.73530086 284.3363674 249.91582267 284.33698189 251.13211787 C284.33555002 254.37319118 284.32068355 257.61386424 284.29981852 260.85485983 C284.2805602 264.36413147 284.27892851 267.87342006 284.27494812 271.38273621 C284.26433917 278.24395539 284.2374099 285.10501588 284.20451979 291.96616076 C284.17807419 297.54688424 284.15764795 303.12760018 284.14145279 308.70836258 C284.1379793 309.90297968 284.1379793 309.90297968 284.13443563 311.12173045 C284.1297571 312.74000477 284.12509275 314.35827912 284.12044241 315.97655351 C284.07620868 331.12847063 284.0134476 346.2802673 283.94423594 361.43208809 C283.88538298 374.40912968 283.84219858 387.38614579 283.81054688 400.36328125 C283.7737159 415.46045951 283.7272504 430.55755758 283.66549695 445.65465605 C283.65892524 447.26735595 283.65236515 448.8800559 283.6458168 450.49275589 C283.64258987 451.28607393 283.63936293 452.07939198 283.63603821 452.89674997 C283.61404122 458.4642642 283.59882239 464.0317729 283.58626938 469.59931564 C283.57075757 476.39381625 283.54456405 483.18817873 283.50506143 489.98258375 C283.48519785 493.44358724 283.46987584 496.90443976 283.46755409 500.36550331 C283.40959866 543.07246108 283.40959866 543.07246108 267.9921875 559.234375 C263.70493137 562.97587009 259.19401727 566.35827598 254.6171875 569.734375 C248.20371276 574.5013988 241.96637358 579.44638935 235.78808594 584.51318359 C230.66775196 588.70632196 225.45976145 592.76220697 220.19921875 596.77734375 C216.79364627 599.3784008 213.42179185 602.02129493 210.0546875 604.671875 C209.47315918 605.12965332 208.89163086 605.58743164 208.29248047 606.05908203 C207.1142861 606.98697121 205.93622651 607.91503154 204.75830078 608.84326172 C201.83847702 611.14311737 198.91516857 613.43853445 195.9921875 615.734375 C194.82550389 616.6510201 193.65883723 617.56768677 192.4921875 618.484375 C171.4921875 634.984375 150.4921875 651.484375 129.4921875 667.984375 C128.91500977 668.4378833 128.33783203 668.8913916 127.74316406 669.35864258 C126.57328734 670.27780813 125.40336527 671.19691595 124.23339844 672.1159668 C121.36547593 674.36893594 118.4982776 676.62281223 115.6328125 678.87890625 C108.33328612 684.62390387 101.0091385 690.33641117 93.67382812 696.03564453 C87.32435722 700.97096431 80.99626914 705.93288248 74.67773438 710.90771484 C71.78409923 713.18523706 68.88799427 715.45961507 65.9921875 717.734375 C64.82550954 718.6510273 63.65884286 719.56769395 62.4921875 720.484375 C44.9921875 734.234375 44.9921875 734.234375 27.4921875 747.984375 C26.62557495 748.6654834 26.62557495 748.6654834 25.74145508 749.36035156 C24.57774941 750.2744249 23.41352599 751.18783948 22.2487793 752.10058594 C19.28216007 754.42672756 16.32614583 756.76456301 13.38671875 759.125 C-5.49551765 774.234375 -5.49551765 774.234375 -10.0078125 774.234375 C-10.348125 775.100625 -10.348125 775.100625 -10.6953125 775.984375 C-13.41512937 780.64691821 -17.78530315 783.05495091 -22.76953125 784.75390625 C-28.70237281 786.02744816 -34.13104882 785.07252438 -39.3203125 781.984375 C-41.63792817 780.43594631 -43.41556294 778.81720459 -45.375 776.8125 C-48.03931084 774.20353093 -50.70825092 772.27978646 -53.8203125 770.234375 C-59.84744062 766.18282494 -65.45550613 761.72140856 -71.05932617 757.10791016 C-75.19794795 753.70185374 -79.37109871 750.36013411 -83.6328125 747.109375 C-89.88225617 742.33945437 -96.06683629 737.4914098 -102.24169922 732.62548828 C-105.16152298 730.32563263 -108.08483143 728.03021555 -111.0078125 725.734375 C-112.17449611 724.8177299 -113.34116277 723.90106323 -114.5078125 722.984375 C-115.0853125 722.530625 -115.6628125 722.076875 -116.2578125 721.609375 C-275.5078125 596.484375 -275.5078125 596.484375 -277.25708008 595.10986328 C-278.42607525 594.19142529 -279.5951837 593.27313146 -280.7644043 592.35498047 C-283.6463819 590.09157171 -286.52647399 587.82585318 -289.40234375 585.5546875 C-290.54149257 584.65602928 -291.68081637 583.75759281 -292.8203125 582.859375 C-293.66843506 582.19083496 -293.66843506 582.19083496 -294.53369141 581.50878906 C-297.79762903 578.94459162 -301.08168527 576.40948411 -304.38671875 573.8984375 C-305.13397217 573.33044434 -305.88122559 572.76245117 -306.65112305 572.17724609 C-308.08931577 571.08629014 -309.52944032 569.9978739 -310.97192383 568.91259766 C-326.33423617 557.26557188 -335.69097049 545.31896799 -338.73163342 525.68257928 C-339.7993123 516.21808245 -339.43618252 506.56357496 -339.41464555 497.05483472 C-339.40987472 493.4999784 -339.42245753 489.94517416 -339.43266296 486.39033508 C-339.44977654 479.44556151 -339.45070706 472.50087871 -339.44545006 465.55608954 C-339.44139552 459.91051516 -339.44286708 454.26496743 -339.44819832 448.6193943 C-339.44894674 447.81348419 -339.44969516 447.00757407 -339.45046626 446.17724243 C-339.45199784 444.53971148 -339.45353619 442.90218054 -339.45508123 441.26464961 C-339.46877768 425.94363293 -339.46338725 410.62266747 -339.45189602 395.30165199 C-339.44195224 381.29560856 -339.45492911 367.28969701 -339.47883021 353.2836739 C-339.5032256 338.87890543 -339.51282889 324.47419838 -339.50617748 310.06940967 C-339.50268809 301.99131448 -339.50489959 293.91332084 -339.52242851 285.83524132 C-339.53715539 278.96380988 -339.53777891 272.09255166 -339.5203576 265.2211236 C-339.51185185 261.71811687 -339.50968763 258.21541955 -339.52500916 254.71242905 C-339.53818983 250.91062967 -339.5266959 247.10967034 -339.50901794 243.3079071 C-339.51862295 242.20751545 -339.52822796 241.1071238 -339.53812402 239.97338694 C-339.44155063 229.87316413 -336.04680672 221.55332922 -329.0078125 214.234375 C-325.10613796 210.92936612 -321.06047871 207.84383896 -316.98583984 204.75683594 C-313.57956717 202.13507386 -310.26790959 199.39832381 -306.9453125 196.671875 C-301.15896033 191.94342887 -295.2895645 187.35593369 -289.34765625 182.82421875 C-285.5298794 179.88720267 -281.80067727 176.84365109 -278.0703125 173.796875 C-270.22795284 167.39162635 -262.28045322 161.13061913 -254.29882812 154.90039062 C-246.78997758 149.03543895 -239.35118722 143.09482474 -231.96923828 137.07080078 C-227.12248412 133.12207007 -222.2242299 129.2458242 -217.296875 125.3984375 C-212.82344275 121.89661045 -208.40923696 118.32614821 -204.0078125 114.734375 C-196.18437117 108.35283502 -188.25709185 102.11238391 -180.29882812 95.90039062 C-173.5400824 90.6213247 -166.8325248 85.29070551 -160.1953125 79.859375 C-154.01920241 74.80864286 -147.72820468 69.9336579 -141.37060547 65.11425781 C-135.75796557 60.84469296 -130.27256846 56.43578339 -124.81640625 51.96875 C-120.58498156 48.50667525 -116.31798282 45.0978275 -112.0078125 41.734375 C-106.93526525 37.77529606 -101.92798059 33.74342664 -96.9453125 29.671875 C-91.1601328 24.94657555 -85.30169039 20.35136777 -79.34765625 15.83984375 C-76.88552015 13.94868064 -74.50318756 11.98214234 -72.13671875 9.97265625 C-50.87240126 -8.01212821 -25.2077794 -17.09745038 0 0 Z " fill="#D89D81" transform="translate(428.0078125,9.765625)"/>
<path d="M0 0 C4.34934247 3.24781187 8.55146418 6.66318404 12.73535156 10.12060547 C17.41339625 13.98378624 22.17891204 17.68706321 27.0546875 21.296875 C32.99618233 25.70150124 38.80773957 30.23785509 44.56542969 34.87963867 C48.95894216 38.41860026 53.39839581 41.88548492 57.87890625 45.31396484 C62.4967636 48.84829482 67.09104215 52.41221104 71.6796875 55.984375 C72.82207886 56.87358643 72.82207886 56.87358643 73.98754883 57.78076172 C75.54564555 58.99372181 77.10366913 60.20677586 78.66162109 61.41992188 C82.43736016 64.35950838 86.21484285 67.29685215 89.9921875 70.234375 C91.49219627 71.40103039 92.99219626 72.56769707 94.4921875 73.734375 C95.2346875 74.311875 95.9771875 74.889375 96.7421875 75.484375 C140.9921875 109.90104167 185.2421875 144.31770833 229.4921875 178.734375 C230.23500977 179.3121167 230.97783203 179.8898584 231.74316406 180.48510742 C233.23994393 181.64928759 234.73668884 182.8135127 236.23339844 183.9777832 C240.80370564 187.53285347 245.3750743 191.08654959 249.94824219 194.63793945 C251.46595593 195.81822195 252.98225638 197.00032425 254.49707031 198.18432617 C257.98060355 200.90607661 261.47504481 203.60538879 265.0234375 206.2421875 C276.0431189 214.49385179 281.43139163 221.49985232 283.9921875 235.234375 C284.36226448 239.35012463 284.37564755 243.42461118 284.33517456 247.55477905 C284.33577098 248.73530086 284.3363674 249.91582267 284.33698189 251.13211787 C284.33555002 254.37319118 284.32068355 257.61386424 284.29981852 260.85485983 C284.2805602 264.36413147 284.27892851 267.87342006 284.27494812 271.38273621 C284.26433917 278.24395539 284.2374099 285.10501588 284.20451979 291.96616076 C284.17807419 297.54688424 284.15764795 303.12760018 284.14145279 308.70836258 C284.13913713 309.50477398 284.13682147 310.30118538 284.13443563 311.12173045 C284.1297571 312.74000477 284.12509275 314.35827912 284.12044241 315.97655351 C284.07620868 331.12847063 284.0134476 346.2802673 283.94423594 361.43208809 C283.88538298 374.40912968 283.84219858 387.38614579 283.81054688 400.36328125 C283.7737159 415.46045951 283.7272504 430.55755758 283.66549695 445.65465605 C283.65892524 447.26735595 283.65236515 448.8800559 283.6458168 450.49275589 C283.64258987 451.28607393 283.63936293 452.07939198 283.63603821 452.89674997 C283.61404122 458.4642642 283.59882239 464.0317729 283.58626938 469.59931564 C283.57075757 476.39381625 283.54456405 483.18817873 283.50506143 489.98258375 C283.48519785 493.44358724 283.46987584 496.90443976 283.46755409 500.36550331 C283.40959866 543.07246108 283.40959866 543.07246108 267.9921875 559.234375 C263.70493137 562.97587009 259.19401727 566.35827598 254.6171875 569.734375 C248.20371276 574.5013988 241.96637358 579.44638935 235.78808594 584.51318359 C230.66775196 588.70632196 225.45976145 592.76220697 220.19921875 596.77734375 C216.79364627 599.3784008 213.42179185 602.02129493 210.0546875 604.671875 C209.47315918 605.12965332 208.89163086 605.58743164 208.29248047 606.05908203 C207.1142861 606.98697121 205.93622651 607.91503154 204.75830078 608.84326172 C201.83847702 611.14311737 198.91516857 613.43853445 195.9921875 615.734375 C194.82550389 616.6510201 193.65883723 617.56768677 192.4921875 618.484375 C171.4921875 634.984375 150.4921875 651.484375 129.4921875 667.984375 C128.91500977 668.4378833 128.33783203 668.8913916 127.74316406 669.35864258 C126.57328734 670.27780813 125.40336527 671.19691595 124.23339844 672.1159668 C121.36547593 674.36893594 118.4982776 676.62281223 115.6328125 678.87890625 C108.33328612 684.62390387 101.0091385 690.33641117 93.67382812 696.03564453 C87.32435722 700.97096431 80.99626914 705.93288248 74.67773438 710.90771484 C71.78409923 713.18523706 68.88799427 715.45961507 65.9921875 717.734375 C64.82550954 718.6510273 63.65884286 719.56769395 62.4921875 720.484375 C50.82552083 729.65104167 39.15885417 738.81770833 27.4921875 747.984375 C26.62533325 748.66560425 26.62533325 748.66560425 25.7409668 749.3605957 C24.57870815 750.27362508 23.41611244 751.18622554 22.25317383 752.09838867 C19.26610136 754.44223342 16.28593878 756.79411697 13.31640625 759.16015625 C-4.38552912 773.234375 -4.38552912 773.234375 -8.0078125 773.234375 C-7.84468787 772.48222434 -7.68156324 771.73007368 -7.51349545 770.95513058 C-6.82061649 765.85700877 -6.88935167 760.84120022 -6.91688538 755.70228577 C-6.9200619 753.95016042 -6.9200619 753.95016042 -6.92330259 752.1626386 C-6.92995878 748.92883615 -6.9410359 745.69508253 -6.95379436 742.46129954 C-6.9663683 738.97044953 -6.97295163 735.47958882 -6.9798584 731.98872375 C-6.98902147 727.50228765 -6.99861053 723.01585477 -7.01043618 718.52942479 C-7.039478 707.41010164 -7.05098868 696.29085297 -7.05186462 685.17149353 C-7.05195833 684.36696173 -7.05205204 683.56242992 -7.05214859 682.73351837 C-7.05287031 676.10959894 -7.05287396 669.48567955 -7.0526485 662.86176009 C-7.0524873 656.89913215 -7.05299919 650.93650473 -7.05444336 644.97387695 C-7.05474035 643.69874699 -7.05474035 643.69874699 -7.05504333 642.39785682 C-7.0592439 628.61621798 -7.09582748 614.83483386 -7.14339954 601.05328483 C-7.19142798 586.89956722 -7.20147376 572.74617692 -7.17706007 558.59239763 C-7.1632683 549.86396557 -7.1795871 541.13664784 -7.23452824 532.40837323 C-7.26940721 526.42776666 -7.26767915 520.44787277 -7.23714329 514.46724517 C-7.22062954 511.01657527 -7.22035893 507.56791186 -7.26378441 504.11743164 C-7.30244859 500.37432784 -7.27974493 496.63644206 -7.24159241 492.89344788 C-7.26751199 491.80511927 -7.29343158 490.71679067 -7.32013661 489.59548241 C-7.21802258 485.08322203 -7.12338031 482.34694224 -3.83930671 479.07170188 C-1.29788926 477.28504364 1.28799299 475.7588191 3.9921875 474.234375 C5.3418735 473.21544861 6.67478903 472.17321705 7.9765625 471.09375 C8.59402344 470.58650391 9.21148437 470.07925781 9.84765625 469.55664062 C10.47285156 469.03779297 11.09804688 468.51894531 11.7421875 467.984375 C13.13203777 466.84280611 14.52267692 465.70219709 15.9140625 464.5625 C16.94176758 463.72041992 16.94176758 463.72041992 17.99023438 462.86132812 C20.96095287 460.44707592 23.9734212 458.08807747 26.9921875 455.734375 C32.7334456 451.25219349 38.39107628 446.67392578 44.03344727 442.06811523 C48.84439006 438.14802333 53.70772391 434.30248181 58.60644531 430.49291992 C61.9743977 427.86020442 65.28880777 425.17272906 68.57421875 422.4375 C69.73739624 421.46961548 69.73739624 421.46961548 70.92407227 420.48217773 C72.44780066 419.21007716 73.96794067 417.93366376 75.48413086 416.65258789 C76.51679077 415.79008423 76.51679077 415.79008423 77.5703125 414.91015625 C78.18293945 414.39364502 78.79556641 413.87713379 79.42675781 413.3449707 C80.9921875 412.234375 80.9921875 412.234375 82.9921875 412.234375 C83.00027435 413.18935883 83.00836121 414.14434265 83.01669312 415.12826538 C83.09442937 424.16097729 83.18223627 433.19354364 83.27971458 442.22606468 C83.3295016 446.86894156 83.37583216 451.5117976 83.4140625 456.15478516 C83.45113886 460.6417719 83.49755719 465.12857649 83.55025101 469.61540604 C83.56867692 471.32083543 83.58382763 473.02630368 83.59553146 474.73179245 C83.39703388 492.30487344 83.39703388 492.30487344 89.9921875 508.234375 C93.78469336 511.73452495 96.84667236 511.92316907 101.86328125 511.76953125 C111.35017616 510.14692875 119.1231942 503.64862289 126.25 497.5546875 C130.98489717 493.54823604 136.00955934 489.92449261 140.9921875 486.234375 C150.35866082 479.27829481 159.58434528 472.1521929 168.7722168 464.96240234 C170.30695857 463.76775786 171.84791736 462.58107305 173.39379883 461.40087891 C183.35408734 453.77150432 190.7639791 445.93054476 192.9921875 433.234375 C193.0832104 431.69527302 193.13087504 430.15311123 193.13935852 428.61134338 C193.14651382 427.71282654 193.15366913 426.81430969 193.16104126 425.88856506 C193.16373016 424.91543869 193.16641907 423.94231232 193.16918945 422.93969727 C193.17576065 421.90497284 193.18233185 420.87024841 193.18910217 419.8041687 C193.20878424 416.38637211 193.22048398 412.96861927 193.23046875 409.55078125 C193.23454428 408.38237135 193.2386198 407.21396145 193.24281883 406.01014519 C193.26365381 399.83057712 193.27796894 393.65103111 193.28735352 387.47143555 C193.29843674 381.08790226 193.33286639 374.70471573 193.37252522 368.32130527 C193.39864983 363.41167039 193.40704148 358.50211886 193.41063499 353.59242058 C193.41550851 351.23888738 193.42714414 348.88535809 193.44567299 346.53189278 C193.4699842 343.24046238 193.46911415 339.9499397 193.4621582 336.65844727 C193.48137329 335.20179405 193.48137329 335.20179405 193.50097656 333.7157135 C193.45611777 327.89285389 192.79024337 324.71163497 188.9921875 320.234375 C187.29031245 318.55105074 187.29031245 318.55105074 185.4453125 317.26171875 C184.77338867 316.7613208 184.10146484 316.26092285 183.40917969 315.74536133 C182.69407227 315.22611084 181.97896484 314.70686035 181.2421875 314.171875 C179.70932618 313.03080723 178.17811577 311.88751884 176.6484375 310.7421875 C175.87242187 310.16243164 175.09640625 309.58267578 174.296875 308.98535156 C170.70777559 306.25854849 167.22399972 303.40860356 163.7421875 300.546875 C157.51098775 295.44312493 151.18727511 290.4946086 144.78369141 285.60791016 C141.276218 282.91875162 137.79184202 280.19979442 134.3046875 277.484375 C133.5430127 276.89148682 132.78133789 276.29859863 131.99658203 275.68774414 C130.43855789 274.47487674 128.88061576 273.26190398 127.32275391 272.04882812 C123.54701484 269.10924162 119.76953215 266.17189785 115.9921875 263.234375 C114.49217873 262.06771961 112.99217874 260.90105293 111.4921875 259.734375 C110.7496875 259.156875 110.0071875 258.579375 109.2421875 257.984375 C102.4921875 252.734375 102.4921875 252.734375 100.2409668 250.98339844 C98.74507088 249.81994188 97.24914005 248.65653022 95.75317383 247.49316406 C91.94008974 244.52775502 88.12766686 241.56150238 84.31640625 238.59375 C77.72017364 233.45842797 71.12249913 228.3256557 64.4921875 223.234375 C55.5069123 216.33476594 46.57775762 209.36286381 37.63964844 202.40234375 C28.11252359 194.98397392 18.57199588 187.58461161 8.9921875 180.234375 C1.72173024 174.65601905 -5.52918831 169.05432895 -12.7578125 163.421875 C-19.34735483 158.28810523 -25.96685874 153.19585688 -32.61010742 148.13183594 C-37.78989644 144.17860276 -42.93454138 140.18206545 -48.0703125 136.171875 C-54.41163771 131.2220653 -60.81170128 126.36114046 -67.26123047 121.5534668 C-71.45314707 118.42122264 -75.59255597 115.23236549 -79.6953125 111.984375 C-88.11527043 105.32146686 -96.67579305 98.84430837 -105.22607422 92.35009766 C-108.03278836 90.21537897 -110.83536828 88.07534511 -113.63671875 85.93359375 C-126.71138607 75.93483173 -126.71138607 75.93483173 -140.0078125 66.234375 C-138.67560641 63.16131567 -137.38680484 61.46571539 -134.69140625 59.4921875 C-134.01827393 58.99058105 -133.3451416 58.48897461 -132.65161133 57.97216797 C-131.92353271 57.43994629 -131.1954541 56.90772461 -130.4453125 56.359375 C-124.27612614 51.75204959 -118.23801769 47.03581362 -112.3203125 42.109375 C-104.9842386 36.01552508 -97.53275018 30.09240984 -90.0078125 24.234375 C-87.71412219 22.44528342 -85.42309683 20.65282345 -83.1328125 18.859375 C-82.56022705 18.41343994 -81.9876416 17.96750488 -81.39770508 17.50805664 C-78.23238179 15.03059852 -75.12454755 12.50274858 -72.0625 9.8984375 C-50.82890206 -8.06115602 -25.14694731 -17.05619035 0 0 Z " fill="#C1694F" transform="translate(428.0078125,9.765625)"/>
<path d="M0 0 C1.55243375 2.32865063 2.66383201 4.36259426 3.8125 6.875 C5.70539961 10.674616 7.79698646 13.15287686 11 16 C11.60328125 16.55945313 12.2065625 17.11890625 12.828125 17.6953125 C18.48881842 22.8737987 24.48345127 27.57528003 30.53125 32.28515625 C34.41750514 35.31545946 38.22888511 38.43252667 42.03515625 41.5625 C51.18395857 49.08404499 60.3751997 56.54601604 69.71020508 63.83544922 C74.87483235 67.87809315 79.95787441 72.01734578 85.0390625 76.1640625 C89.32451618 79.65530083 93.64329453 83.09818888 98 86.5 C103.74091461 90.98263195 109.39887777 95.56044024 115.04125977 100.16625977 C119.30310909 103.63893482 123.60131101 107.05826306 127.9375 110.4375 C133.94214522 115.1200215 139.81660123 119.94987865 145.68115234 124.80615234 C150.64935149 128.91129405 155.67853128 132.92533817 160.76171875 136.88671875 C165.22089304 140.36853977 169.61734231 143.92248072 174 147.5 C178.96232244 151.54982067 183.9515402 155.55805194 189 159.5 C194.74091461 163.98263195 200.39887777 168.56044024 206.04125977 173.16625977 C210.30310909 176.63893482 214.60131101 180.05826306 218.9375 183.4375 C224.94214522 188.1200215 230.81660123 192.94987865 236.68115234 197.80615234 C241.64896234 201.9109725 246.67569411 205.92750663 251.76171875 209.88452148 C255.54105348 212.83173386 259.26093065 215.84281399 262.9621582 218.88745117 C275.31481599 229.41708716 275.31481599 229.41708716 289 238 C289.00135653 238.59789762 289.00271306 239.19579524 289.00411069 239.81181097 C289.08476873 275.25165555 289.17572661 310.69145912 289.28005161 346.13124213 C289.29257041 350.3869737 289.3050032 354.64270552 289.31738281 358.8984375 C289.3210818 360.16929167 289.3210818 360.16929167 289.32485552 361.46581966 C289.36457428 375.18237355 289.39732553 388.89893567 289.42749982 402.6155135 C289.45861884 416.69101132 289.49723018 430.76647422 289.54279006 444.84193277 C289.57066472 453.52654395 289.5927022 462.2111296 289.60726251 470.89577347 C289.61780832 476.85194778 289.63563473 482.80807264 289.65916704 488.76420969 C289.67252748 492.20006682 289.68269627 495.63585469 289.68421364 499.0717392 C289.68753648 502.79999772 289.70301523 506.52801601 289.7215271 510.25622559 C289.718625 511.87881546 289.718625 511.87881546 289.71566427 513.53418493 C289.7590105 519.37066317 290.31642502 524.40402492 292 530 C285.85230754 526.82440008 280.52545508 523.27696224 275.25 518.8125 C273.85268987 517.65358729 272.45423774 516.49605022 271.0546875 515.33984375 C270.36987305 514.77249512 269.68505859 514.20514648 268.97949219 513.62060547 C266.15763103 511.31035456 263.27626258 509.08420597 260.375 506.875 C254.12555633 502.10507937 247.94097621 497.2570348 241.76611328 492.39111328 C239.42835011 490.54972891 237.08830399 488.71126001 234.74804688 486.87304688 C232.99712423 485.49774115 231.24660958 484.12191723 229.49609375 482.74609375 C227.17719876 480.92396622 224.85677485 479.10381206 222.53515625 477.28515625 C216.47559718 472.53558771 210.44059181 467.75829292 204.4375 462.9375 C199.30859703 458.81976312 194.13268376 454.77358435 188.9050293 450.78222656 C184.80510082 447.64270338 180.77149116 444.42666944 176.75 441.1875 C171.41703326 436.89336009 166.01719191 432.70075647 160.5625 428.5625 C154.18428039 423.72079872 147.93776155 418.74227722 141.74291992 413.66870117 C136.63864755 409.49581456 131.44752035 405.45686201 126.20703125 401.45703125 C121.01569089 397.4920672 115.89670434 393.43412666 110.76611328 389.39111328 C107.84628952 387.09125763 104.92298107 384.79584055 102 382.5 C100.83331639 381.5833549 99.66664973 380.66668823 98.5 379.75 C97.63375 379.069375 97.63375 379.069375 96.75 378.375 C63.5 352.25 63.5 352.25 61.75073242 350.87548828 C60.58173725 349.95705029 59.4126288 349.03875646 58.2434082 348.12060547 C55.3614306 345.85719671 52.48133851 343.59147818 49.60546875 341.3203125 C48.46631993 340.42165428 47.32699613 339.52321781 46.1875 338.625 C45.33937744 337.95645996 45.33937744 337.95645996 44.47412109 337.27441406 C41.21018347 334.71021662 37.92612723 332.17510911 34.62109375 329.6640625 C33.87384033 329.09606934 33.12658691 328.52807617 32.35668945 327.94287109 C30.91849673 326.85191514 29.47837218 325.7634989 28.03588867 324.67822266 C12.64260323 313.00771444 3.33657552 301.07040984 0.27351165 281.40493727 C-0.83901974 271.6226548 -0.38303432 261.626506 -0.34057617 251.79931641 C-0.33805227 249.04851536 -0.34007513 246.29772192 -0.34190369 243.54692078 C-0.34346872 237.64794423 -0.33414067 231.74906804 -0.31719017 225.85011673 C-0.29269942 217.32147907 -0.28498466 208.79288941 -0.2812262 200.2642204 C-0.27467742 186.42351534 -0.25475923 172.58286363 -0.22631836 158.7421875 C-0.19873687 145.30566676 -0.17752337 131.86916056 -0.16479492 118.43261719 C-0.16400675 117.60292355 -0.16321858 116.77322991 -0.16240653 115.91839404 C-0.15849112 111.75562714 -0.15470006 107.59286013 -0.15097082 103.43009305 C-0.11992398 68.95335698 -0.06713136 34.47668427 0 0 Z " fill="#662113" transform="translate(89,254)"/>
<path d="M0 0 C3.45347018 1.25284328 6.13323388 2.65573055 9.00390625 4.94140625 C9.73778564 5.52003418 10.47166504 6.09866211 11.2277832 6.69482422 C11.99823975 7.31115723 12.76869629 7.92749023 13.5625 8.5625 C15.19210439 9.84842198 16.82231227 11.13357954 18.453125 12.41796875 C19.24009766 13.03978027 20.02707031 13.6615918 20.83789062 14.30224609 C23.46690221 16.36662579 26.13099483 18.37937115 28.8125 20.375 C41.74653808 30.017388 54.54454666 39.83915977 67.25366211 49.77563477 C72.84387273 54.13291982 78.50457471 58.3896072 84.1875 62.625 C90.74659035 67.51437831 97.19923209 72.50298878 103.55712891 77.65063477 C108.63946336 81.75113893 113.84544937 85.6690392 119.08422852 89.56665039 C124.09577444 93.30192996 129.02737751 97.12734822 133.9309082 101.00292969 C138.20173975 104.37792236 142.50503975 107.70793119 146.82495117 111.02001953 C151.56650672 114.65883814 156.28446503 118.32754629 161 122 C168.31276305 127.69381959 175.6469672 133.35828686 183 139 C192.58725366 146.3559491 202.13500751 153.76128005 211.66943359 161.18554688 C215.44517266 164.12513338 219.22265535 167.06247715 223 170 C224.50000877 171.16665539 226.00000876 172.33332207 227.5 173.5 C228.2425 174.0775 228.985 174.655 229.75 175.25 C238 181.66666667 246.25 188.08333333 254.5 194.5 C255.24282227 195.0777417 255.98564453 195.6554834 256.75097656 196.25073242 C258.24775643 197.41491259 259.74450134 198.5791377 261.24121094 199.7434082 C265.04019058 202.69849173 268.83981465 205.65274014 272.640625 208.60546875 C281.2180193 215.27023809 289.77992451 221.95376787 298.31445312 228.67333984 C300.62290465 230.49027576 302.93298003 232.30514075 305.24316406 234.11987305 C306.40671055 235.03392645 307.57012383 235.94814945 308.73339844 236.86254883 C311.74719496 239.23144039 314.76282246 241.59794879 317.78125 243.9609375 C318.40386719 244.44884766 319.02648437 244.93675781 319.66796875 245.43945312 C320.84707151 246.36337693 322.02671608 247.28660993 323.20703125 248.20898438 C324.8101801 249.46586837 326.40514223 250.73262233 328 252 C328.55042969 252.42571289 329.10085938 252.85142578 329.66796875 253.29003906 C333.31045607 256.18065703 335.69155708 258.41184077 336.25447559 263.13531685 C336.25652846 263.90769629 336.25858133 264.68007572 336.26069641 265.4758606 C336.26778122 266.36722214 336.27486603 267.25858368 336.28216553 268.17695618 C336.27968811 269.14739365 336.27721069 270.11783112 336.2746582 271.11767578 C336.2823246 272.65990562 336.2823246 272.65990562 336.29014587 274.23329163 C336.30406156 277.6373576 336.30308288 281.04122143 336.30078125 284.4453125 C336.30466851 286.81460648 336.30900325 289.18389976 336.31376648 291.55319214 C336.32123399 296.52474218 336.32093458 301.49622123 336.31567383 306.46777344 C336.30989379 312.82287336 336.32677235 319.17768046 336.3500185 325.53273201 C336.36479303 330.42967413 336.3656222 335.32654646 336.36250877 340.22350693 C336.36302062 342.56534274 336.36823255 344.9071826 336.37832069 347.24899673 C336.39073269 350.5348398 336.38386337 353.82012214 336.37231445 357.10595703 C336.37995819 358.06424911 336.38760193 359.0225412 336.39547729 360.00987244 C336.29953233 372.43374718 332.04766035 381.79486143 323.625 390.8125 C317.87706831 396.35000645 311.28313014 400.9101799 304.85888672 405.61962891 C301.7071593 407.96003695 298.65045452 410.41855039 295.6015625 412.890625 C294 414 294 414 292 414 C291.99761165 413.43346647 291.99522329 412.86693295 291.99276257 412.28323174 C291.93357868 398.48638767 291.85781892 384.68971992 291.76428509 370.8930645 C291.71955226 364.22103246 291.68030237 357.54908343 291.65356445 350.87695312 C291.62756088 344.43833006 291.58717873 337.9999432 291.53681374 331.56146622 C291.5201252 329.10471662 291.50862333 326.64792614 291.50238609 324.19112778 C291.49276695 320.7507016 291.46473241 317.31088247 291.43237305 313.87060547 C291.43452568 312.34606499 291.43452568 312.34606499 291.4367218 310.79072571 C291.36533084 305.42582399 290.96291071 301.66788959 288 297 C283.22538621 300.05781593 278.86914632 303.45432046 274.5 307.0625 C269.37441282 311.26302725 264.22572037 315.42466181 259 319.5 C253.86983169 323.50601024 248.79695407 327.57716121 243.75 331.6875 C243.07694824 332.23494873 242.40389648 332.78239746 241.71044922 333.34643555 C238.74682634 335.75825416 235.78694988 338.17433109 232.8359375 340.6015625 C231.94132812 341.33117187 231.04671875 342.06078125 230.125 342.8125 C229.36445312 343.43769531 228.60390625 344.06289063 227.8203125 344.70703125 C226 346 226 346 224 346 C223.06462814 344.56731505 222.13188399 343.13283182 221.21386719 341.68896484 C219.10902048 338.7602984 216.39046103 336.59841464 213.625 334.3125 C213.01358154 333.79776123 212.40216309 333.28302246 211.7722168 332.75268555 C206.37457302 328.23865656 200.84713893 323.89300589 195.29296875 319.57421875 C191.46382408 316.59280631 187.71308965 313.51975801 183.96484375 310.4375 C175.3980773 303.39446671 166.80852369 296.38220345 158.0625 289.5625 C152.05799317 284.87979411 146.18340523 280.0501267 140.31884766 275.19384766 C135.35064851 271.08870595 130.32146872 267.07466183 125.23828125 263.11328125 C120.77910696 259.63146023 116.38265769 256.07751928 112 252.5 C107.03767756 248.45017933 102.0484598 244.44194806 97 240.5 C91.9515356 236.55804835 86.96248538 232.5496258 82 228.5 C74.73667048 222.57534029 67.38856385 216.76730184 60 211 C51.91946795 204.69256755 43.9035386 198.3175703 35.96142578 191.83642578 C31.11547458 187.88834926 26.21847906 184.01215189 21.29125977 180.16625977 C16.79336154 176.64624854 12.36014298 173.05143112 7.9375 169.4375 C3.17826054 165.55018227 -1.61374347 161.72660109 -6.5 158 C-12.08836614 153.73792101 -17.54628513 149.33360701 -22.98828125 144.88671875 C-27.28936608 141.37663802 -31.62376186 137.91582925 -36 134.5 C-41.74019254 130.0181114 -47.39693517 125.44043222 -53.0390625 120.8359375 C-57.88413807 116.88879099 -62.77963844 113.01271129 -67.70654297 109.16845703 C-72.22892025 105.63026387 -76.6810595 102.01099923 -81.125 98.375 C-87.61999849 93.06483622 -94.23336028 87.95963934 -101 83 C-99.43936378 78.53953295 -95.85370127 76.21245357 -92.25 73.4375 C-91.5789624 72.9108374 -90.9079248 72.3841748 -90.21655273 71.84155273 C-88.14952236 70.22097569 -86.075192 68.61010573 -84 67 C-81.68507264 65.19058861 -79.37374047 63.37661705 -77.0625 61.5625 C-76.49499023 61.1183374 -75.92748047 60.6741748 -75.34277344 60.21655273 C-70.85340515 56.69502392 -66.4209817 53.10685535 -62 49.5 C-54.17647251 43.11856278 -46.249282 36.87801098 -38.29101562 30.66601562 C-30.03035699 24.21384782 -21.85851101 17.66232596 -13.734375 11.0390625 C-9.181063 7.32818284 -4.59647256 3.65728947 0 0 Z " fill="#CCD5DC" transform="translate(286,75)"/>
<path d="M0 0 C4.34934247 3.24781187 8.55146418 6.66318404 12.73535156 10.12060547 C17.41339625 13.98378624 22.17891204 17.68706321 27.0546875 21.296875 C32.99618233 25.70150124 38.80773957 30.23785509 44.56542969 34.87963867 C48.95894216 38.41860026 53.39839581 41.88548492 57.87890625 45.31396484 C62.4967636 48.84829482 67.09104215 52.41221104 71.6796875 55.984375 C72.82207886 56.87358643 72.82207886 56.87358643 73.98754883 57.78076172 C75.54564555 58.99372181 77.10366913 60.20677586 78.66162109 61.41992188 C82.43736016 64.35950838 86.21484285 67.29685215 89.9921875 70.234375 C91.49219627 71.40103039 92.99219626 72.56769707 94.4921875 73.734375 C95.2346875 74.311875 95.9771875 74.889375 96.7421875 75.484375 C140.9921875 109.90104167 185.2421875 144.31770833 229.4921875 178.734375 C230.23500977 179.3121167 230.97783203 179.8898584 231.74316406 180.48510742 C233.23994393 181.64928759 234.73668884 182.8135127 236.23339844 183.9777832 C240.80370564 187.53285347 245.3750743 191.08654959 249.94824219 194.63793945 C251.46595593 195.81822195 252.98225638 197.00032425 254.49707031 198.18432617 C257.98060355 200.90607661 261.47504481 203.60538879 265.0234375 206.2421875 C274.75868368 213.53205191 281.02458118 220.00911657 283.65234375 232.24609375 C284.67104623 241.20365007 281.02088318 249.55190697 275.6171875 256.546875 C271.5939151 261.00157063 266.71658337 264.50351507 261.97265625 268.14453125 C257.73041011 271.40999308 253.6103911 274.81464555 249.4921875 278.234375 C243.8014141 282.94820254 238.058917 287.57892373 232.23046875 292.12109375 C227.77129419 295.60291498 223.37485093 299.15686196 218.9921875 302.734375 C212.71071481 307.86061683 206.36982252 312.90357293 199.98046875 317.89453125 C197.3034741 319.99063556 194.64278611 322.10504439 191.9921875 324.234375 C191.27546875 323.5021875 190.55875 322.77 189.8203125 322.015625 C182.04278871 314.36701044 173.23706859 307.84144824 164.5559082 301.26586914 C159.59730895 297.49781785 154.7408377 293.6259854 149.9296875 289.671875 C144.04689988 284.84178151 138.04179055 280.22109121 131.92822266 275.68774414 C126.66188282 271.77060518 121.52819862 267.70813261 116.41894531 263.58911133 C112.02543284 260.05014974 107.58597919 256.58326508 103.10546875 253.15478516 C98.48761083 249.62045474 93.89338587 246.0564715 89.3046875 242.484375 C88.54381836 241.89229248 87.78294922 241.30020996 86.99902344 240.69018555 C83.14389386 237.68963935 79.29020954 234.68724645 75.4375 231.68359375 C67.36026523 225.38965592 59.25713797 219.13278309 51.11401367 212.92431641 C46.04414381 209.05338226 41.01763145 205.13085685 36.00976562 201.18017578 C31.75398309 197.82502993 27.46767457 194.51161222 23.16699219 191.21411133 C18.42544728 187.57546627 13.70763216 183.90675837 8.9921875 180.234375 C1.67941578 174.54054867 -5.65551375 168.87705409 -13.0078125 163.234375 C-15.72082836 161.14858395 -18.43285732 159.06151022 -21.14501953 156.97460938 C-23.78958736 154.93996132 -26.43503697 152.90649244 -29.08203125 150.875 C-33.82132811 147.23579087 -38.55551294 143.59101578 -43.265625 139.9140625 C-50.55021559 134.22793184 -57.84851588 128.56997175 -65.2578125 123.046875 C-70.12153808 119.42131804 -74.93898834 115.74976919 -79.6953125 111.984375 C-88.11527043 105.32146686 -96.67579305 98.84430837 -105.22607422 92.35009766 C-108.03278836 90.21537897 -110.83536828 88.07534511 -113.63671875 85.93359375 C-126.71138607 75.93483173 -126.71138607 75.93483173 -140.0078125 66.234375 C-138.67560641 63.16131567 -137.38680484 61.46571539 -134.69140625 59.4921875 C-134.01827393 58.99058105 -133.3451416 58.48897461 -132.65161133 57.97216797 C-131.92353271 57.43994629 -131.1954541 56.90772461 -130.4453125 56.359375 C-124.27612614 51.75204959 -118.23801769 47.03581362 -112.3203125 42.109375 C-104.9842386 36.01552508 -97.53275018 30.09240984 -90.0078125 24.234375 C-87.71412219 22.44528342 -85.42309683 20.65282345 -83.1328125 18.859375 C-82.56022705 18.41343994 -81.9876416 17.96750488 -81.39770508 17.50805664 C-78.23238179 15.03059852 -75.12454755 12.50274858 -72.0625 9.8984375 C-50.82890206 -8.06115602 -25.14694731 -17.05619035 0 0 Z " fill="#D99E82" transform="translate(428.0078125,9.765625)"/>
<path d="M0 0 C3.45347018 1.25284328 6.13323388 2.65573055 9.00390625 4.94140625 C10.10472534 5.80934814 10.10472534 5.80934814 11.2277832 6.69482422 C11.99823975 7.31115723 12.76869629 7.92749023 13.5625 8.5625 C15.19210439 9.84842198 16.82231227 11.13357954 18.453125 12.41796875 C19.24009766 13.03978027 20.02707031 13.6615918 20.83789062 14.30224609 C23.46690221 16.36662579 26.13099483 18.37937115 28.8125 20.375 C41.74653808 30.017388 54.54454666 39.83915977 67.25366211 49.77563477 C72.84387273 54.13291982 78.50457471 58.3896072 84.1875 62.625 C90.74659035 67.51437831 97.19923209 72.50298878 103.55712891 77.65063477 C108.63946336 81.75113893 113.84544937 85.6690392 119.08422852 89.56665039 C124.09577444 93.30192996 129.02737751 97.12734822 133.9309082 101.00292969 C138.20173975 104.37792236 142.50503975 107.70793119 146.82495117 111.02001953 C151.56650672 114.65883814 156.28446503 118.32754629 161 122 C168.31276305 127.69381959 175.6469672 133.35828686 183 139 C192.58725366 146.3559491 202.13500751 153.76128005 211.66943359 161.18554688 C215.44517266 164.12513338 219.22265535 167.06247715 223 170 C224.50000877 171.16665539 226.00000876 172.33332207 227.5 173.5 C228.2425 174.0775 228.985 174.655 229.75 175.25 C238 181.66666667 246.25 188.08333333 254.5 194.5 C255.24282227 195.0777417 255.98564453 195.6554834 256.75097656 196.25073242 C258.24775643 197.41491259 259.74450134 198.5791377 261.24121094 199.7434082 C265.04019058 202.69849173 268.83981465 205.65274014 272.640625 208.60546875 C281.2180193 215.27023809 289.77992451 221.95376787 298.31445312 228.67333984 C300.62290465 230.49027576 302.93298003 232.30514075 305.24316406 234.11987305 C306.40671055 235.03392645 307.57012383 235.94814945 308.73339844 236.86254883 C311.74719496 239.23144039 314.76282246 241.59794879 317.78125 243.9609375 C318.40386719 244.44884766 319.02648437 244.93675781 319.66796875 245.43945312 C320.84707151 246.36337693 322.02671608 247.28660993 323.20703125 248.20898438 C326.86171702 251.07429291 330.44464272 254.01221482 334 257 C332.65146164 261.04561507 329.91042937 262.64955896 326.625 265.125 C325.33264277 266.11889438 324.0409828 267.11369601 322.75 268.109375 C322.10933594 268.60115234 321.46867187 269.09292969 320.80859375 269.59960938 C318.37797065 271.48163611 315.99831121 273.42135967 313.625 275.375 C308.9253525 279.23993399 304.21752333 283.0944135 299.5 286.9375 C298.80471191 287.50581543 298.10942383 288.07413086 297.39306641 288.65966797 C296.73741699 289.19350098 296.08176758 289.72733398 295.40625 290.27734375 C294.82166016 290.75421631 294.23707031 291.23108887 293.63476562 291.72241211 C289.41005631 295.02407039 289.41005631 295.02407039 287.13671875 294.890625 C284.19166499 293.6630706 282.2148521 291.85078745 279.8125 289.75 C274.8986604 285.52887046 269.85280866 281.53389803 264.6875 277.625 C259.14861973 273.42524404 253.66360837 269.17267989 248.25 264.8125 C243.24905532 260.78671346 238.21170827 256.82184724 233.11303711 252.92016602 C228.49519151 249.38600824 223.90105506 245.82209367 219.3125 242.25 C218.17010864 241.36078857 218.17010864 241.36078857 217.00463867 240.45361328 C215.44654195 239.24065319 213.88851837 238.02759914 212.33056641 236.81445312 C208.55482734 233.87486662 204.77734465 230.93752285 201 228 C199.49999123 226.83334461 197.99999124 225.66667793 196.5 224.5 C195.7575 223.9225 195.015 223.345 194.25 222.75 C151.5 189.5 151.5 189.5 149.2487793 187.74902344 C147.75288338 186.58556688 146.25695255 185.42215522 144.76098633 184.25878906 C140.94790224 181.29338002 137.13547936 178.32712738 133.32421875 175.359375 C126.72798614 170.22405297 120.13031163 165.0912807 113.5 160 C106.08386871 154.30530446 98.70801416 148.55912408 91.33056641 142.81445312 C87.55482734 139.87486662 83.77734465 136.93752285 80 134 C78.49999123 132.83334461 76.99999124 131.66667793 75.5 130.5 C74.7575 129.9225 74.015 129.345 73.25 128.75 C53 113 32.75 97.25 12.5 81.5 C11.75717773 80.9222583 11.01435547 80.3445166 10.24902344 79.74926758 C8.75224357 78.58508741 7.25549866 77.4208623 5.75878906 76.2565918 C1.95980942 73.30150827 -1.83981465 70.34725986 -5.640625 67.39453125 C-18.15390609 57.67165904 -30.65057124 47.93076184 -43 38 C-41.5935769 32.55513342 -37.99967077 30.16308811 -33.75 26.875 C-33.03561768 26.3087793 -32.32123535 25.74255859 -31.58520508 25.15917969 C-29.39800146 23.42916625 -27.20009783 21.71357132 -25 20 C-23.73770964 19.00853982 -22.47595792 18.01639333 -21.21484375 17.0234375 C-19.46868039 15.64954415 -17.72173325 14.27675842 -15.97119141 12.90844727 C-10.57745974 8.69015234 -5.27796954 4.36240339 0 0 Z " fill="#E0E7ED" transform="translate(286,75)"/>
<path d="M0 0 C3.08163705 2.88282175 4.81734971 4.74000344 5.16939163 9.0959425 C5.19013119 9.90871308 5.21087074 10.72148367 5.23223877 11.55888367 C5.25792435 12.49383163 5.28360992 13.4287796 5.31007385 14.39205933 C5.33311081 15.41598785 5.35614777 16.43991638 5.37988281 17.49487305 C5.40745163 18.57486069 5.43502045 19.65484833 5.46342468 20.76756287 C5.70773087 30.72424236 5.88523453 40.68246891 6.04321671 50.64085674 C6.14986089 57.33166833 6.27632383 64.02048693 6.45751953 70.7097168 C6.63073969 77.17738428 6.74964395 83.64395185 6.83040619 90.11341286 C6.87039009 92.57730252 6.92956889 95.04095914 7.00839996 97.50391197 C7.60511798 116.79785945 7.60511798 116.79785945 3.67604065 122.18835449 C0.84868759 124.26612427 -1.79493744 125.60196215 -5 127 C-6.80512294 128.31256322 -8.58230453 129.66525654 -10.31640625 131.0703125 C-11.18330078 131.73933594 -12.05019531 132.40835938 -12.94335938 133.09765625 C-14.69567993 134.4540386 -16.44566854 135.81343873 -18.19335938 137.17578125 C-36.99249263 151.64957409 -36.99249263 151.64957409 -48.30859375 151.36328125 C-51.42043309 150.94325069 -53.55815408 150.01959469 -55.7890625 147.75 C-61.3003584 139.7852885 -62.08607833 130.56830306 -62.33569336 121.14379883 C-62.35832748 120.39152008 -62.38096161 119.63924133 -62.40428162 118.86416626 C-62.60072201 111.95931288 -62.71680222 105.05284225 -62.80750179 98.14586353 C-62.86932641 93.5196265 -62.95802654 88.89738641 -63.11108398 84.27319336 C-63.25916966 79.77779123 -63.33692678 75.28602169 -63.36721992 70.7883358 C-63.3903727 69.08680226 -63.43767613 67.38540156 -63.51078606 65.68528175 C-64.03803849 52.84273615 -64.03803849 52.84273615 -60.668293 48.14248276 C-57.42770019 44.68606718 -53.76331905 41.92236603 -49.84961319 39.27439022 C-46.82069943 37.18745761 -43.99279851 34.86437163 -41.125 32.5625 C-39.96219186 31.65594086 -38.79845939 30.75056242 -37.6328125 29.84765625 C-33.70878862 26.78837494 -29.85350189 23.64735067 -26 20.5 C-17.45107974 13.52457065 -8.85917444 6.57987228 0 0 Z " fill="#99A9B4" transform="translate(573,371)"/>
</svg>
